<?xml version="1.0" encoding="UTF-8" standalone="no"?>
<!DOCTYPE svg PUBLIC "-//W3C//DTD SVG 1.1//EN"
 "http://www.w3.org/Graphics/SVG/1.1/DTD/svg11.dtd">
<!-- Generated by graphviz version 2.43.0 (0)
 -->
<!-- Title: AWS_Architecture Pages: 1 -->
<svg width="800" height="600"
 viewBox="0.00 0.00 531.00 566.00" xmlns="http://www.w3.org/2000/svg" xmlns:xlink="http://www.w3.org/1999/xlink">
<g id="graph0" class="graph" transform="scale(1 1) rotate(0) translate(4 562)">
<title>AWS_Architecture</title>
<!-- User -->
<g id="node1" class="node">
<title>User</title>
<polygon fill="lightcyan" stroke="black" points="181,-558 71,-558 71,-522 181,-522 181,-558"/>
<text text-anchor="middle" x="126" y="-536.9" font-family="Times,serif" font-size="12.00">User (Browser)</text>
</g>
<!-- CloudFront -->
<g id="node2" class="node">
<title>CloudFront</title>
<polygon fill="lightcyan" stroke="black" points="190,-471 62,-471 62,-435 190,-435 190,-471"/>
<text text-anchor="middle" x="126" y="-449.9" font-family="Times,serif" font-size="12.00">CloudFront (CDN)</text>
</g>
<!-- User&#45;&gt;CloudFront -->
<g id="edge3" class="edge">
<title>User&#45;&gt;CloudFront</title>
<path fill="none" stroke="black" d="M126,-521.8C126,-510.16 126,-494.55 126,-481.24"/>
<polygon fill="black" stroke="black" points="129.5,-481.18 126,-471.18 122.5,-481.18 129.5,-481.18"/>
<text text-anchor="middle" x="174.5" y="-492.8" font-family="Times,serif" font-size="14.00">Accesses App</text>
</g>
<!-- S3 -->
<g id="node3" class="node">
<title>S3</title>
<polygon fill="lightcyan" stroke="black" points="246.5,-384 69.5,-384 69.5,-348 246.5,-348 246.5,-384"/>
<text text-anchor="middle" x="158" y="-362.9" font-family="Times,serif" font-size="12.00">S3 Bucket (Static Hosting)</text>
</g>
<!-- CloudFront&#45;&gt;S3 -->
<g id="edge4" class="edge">
<title>CloudFront&#45;&gt;S3</title>
<path fill="none" stroke="black" d="M123.47,-434.76C122.71,-424.85 122.96,-412.35 127,-402 128.31,-398.65 130.1,-395.41 132.15,-392.34"/>
<polygon fill="black" stroke="black" points="135.11,-394.24 138.51,-384.2 129.59,-389.93 135.11,-394.24"/>
<text text-anchor="middle" x="177" y="-405.8" font-family="Times,serif" font-size="14.00">Routes Traffic</text>
</g>
<!-- Frontend -->
<g id="node4" class="node">
<title>Frontend</title>
<polygon fill="lightcyan" stroke="black" points="211,-297 105,-297 105,-261 211,-261 211,-297"/>
<text text-anchor="middle" x="158" y="-275.9" font-family="Times,serif" font-size="12.00">React Vite App</text>
</g>
<!-- S3&#45;&gt;Frontend -->
<g id="edge5" class="edge">
<title>S3&#45;&gt;Frontend</title>
<path fill="none" stroke="black" d="M158,-347.8C158,-336.16 158,-320.55 158,-307.24"/>
<polygon fill="black" stroke="black" points="161.5,-307.18 158,-297.18 154.5,-307.18 161.5,-307.18"/>
<text text-anchor="middle" x="199" y="-318.8" font-family="Times,serif" font-size="14.00">Serves App</text>
</g>
<!-- AppSync -->
<g id="node5" class="node">
<title>AppSync</title>
<polygon fill="lightcyan" stroke="black" points="188,-210 0,-210 0,-174 188,-174 188,-210"/>
<text text-anchor="middle" x="94" y="-188.9" font-family="Times,serif" font-size="12.00">AppSync GraphQL Endpoint</text>
</g>
<!-- Frontend&#45;&gt;AppSync -->
<g id="edge6" class="edge">
<title>Frontend&#45;&gt;AppSync</title>
<path fill="none" stroke="black" d="M104.68,-269.78C74.54,-263.93 41.1,-254.97 32,-243 24.19,-232.72 30.32,-223.29 41.26,-215.46"/>
<polygon fill="black" stroke="black" points="43.31,-218.31 49.94,-210.05 39.61,-212.37 43.31,-218.31"/>
<text text-anchor="middle" x="100" y="-231.8" font-family="Times,serif" font-size="14.00">GraphQL Requests</text>
</g>
<!-- AppSync&#45;&gt;Frontend -->
<g id="edge11" class="edge">
<title>AppSync&#45;&gt;Frontend</title>
<path fill="none" stroke="black" d="M148.96,-210.01C156.51,-214.66 163.29,-220.56 168,-228 172.33,-234.84 172.29,-243.17 170.45,-251.05"/>
<polygon fill="black" stroke="black" points="167.1,-250.06 167.36,-260.65 173.76,-252.21 167.1,-250.06"/>
<text text-anchor="middle" x="220" y="-231.8" font-family="Times,serif" font-size="14.00">Returns Data</text>
</g>
<!-- Lambdas -->
<g id="node7" class="node">
<title>Lambdas</title>
<polygon fill="lightcyan" stroke="black" points="353.5,-123 224.5,-123 224.5,-87 353.5,-87 353.5,-123"/>
<text text-anchor="middle" x="289" y="-101.9" font-family="Times,serif" font-size="12.00">Lambda Functions</text>
</g>
<!-- AppSync&#45;&gt;Lambdas -->
<g id="edge7" class="edge">
<title>AppSync&#45;&gt;Lambdas</title>
<path fill="none" stroke="black" d="M104.02,-173.63C111.25,-162.64 122.01,-149.03 135,-141 158.68,-126.36 187.8,-117.83 214.32,-112.86"/>
<polygon fill="black" stroke="black" points="215.08,-116.28 224.34,-111.13 213.89,-109.38 215.08,-116.28"/>
<text text-anchor="middle" x="210" y="-144.8" font-family="Times,serif" font-size="14.00">Routes API Requests</text>
</g>
<!-- EventBridge -->
<g id="node6" class="node">
<title>EventBridge</title>
<polygon fill="lightcyan" stroke="black" points="371.5,-210 206.5,-210 206.5,-174 371.5,-174 371.5,-210"/>
<text text-anchor="middle" x="289" y="-188.9" font-family="Times,serif" font-size="12.00">EventBridge (Scheduler)</text>
</g>
<!-- EventBridge&#45;&gt;Lambdas -->
<g id="edge8" class="edge">
<title>EventBridge&#45;&gt;Lambdas</title>
<path fill="none" stroke="black" d="M289,-173.8C289,-162.16 289,-146.55 289,-133.24"/>
<polygon fill="black" stroke="black" points="292.5,-133.18 289,-123.18 285.5,-133.18 292.5,-133.18"/>
<text text-anchor="middle" x="337" y="-144.8" font-family="Times,serif" font-size="14.00">Triggers Jobs</text>
</g>
<!-- MongoDB -->
<g id="node8" class="node">
<title>MongoDB</title>
<polygon fill="lightcyan" stroke="black" points="265.5,-36 154.5,-36 154.5,0 265.5,0 265.5,-36"/>
<text text-anchor="middle" x="210" y="-14.9" font-family="Times,serif" font-size="12.00">MongoDB Atlas</text>
</g>
<!-- Lambdas&#45;&gt;MongoDB -->
<g id="edge9" class="edge">
<title>Lambdas&#45;&gt;MongoDB</title>
<path fill="none" stroke="black" d="M234.2,-86.99C226.33,-82.33 219.16,-76.44 214,-69 209.44,-62.44 207.64,-54.15 207.2,-46.22"/>
<polygon fill="black" stroke="black" points="210.7,-46.22 207.29,-36.18 203.7,-46.15 210.7,-46.22"/>
<text text-anchor="middle" x="280.5" y="-57.8" font-family="Times,serif" font-size="14.00">Reads/Writes Data</text>
</g>
<!-- CloudWatch -->
<g id="node9" class="node">
<title>CloudWatch</title>
<polygon fill="lightcyan" stroke="black" points="454,-36 284,-36 284,0 454,0 454,-36"/>
<text text-anchor="middle" x="369" y="-14.9" font-family="Times,serif" font-size="12.00">CloudWatch (Monitoring)</text>
</g>
<!-- Lambdas&#45;&gt;CloudWatch -->
<g id="edge10" class="edge">
<title>Lambdas&#45;&gt;CloudWatch</title>
<path fill="none" stroke="black" d="M325.04,-86.95C332.99,-81.98 340.87,-75.98 347,-69 352.88,-62.32 357.4,-53.81 360.77,-45.72"/>
<polygon fill="black" stroke="black" points="364.11,-46.8 364.33,-36.21 357.55,-44.35 364.11,-46.8"/>
<text text-anchor="middle" x="403" y="-57.8" font-family="Times,serif" font-size="14.00">Logs Metrics</text>
</g>
<!-- GitHub -->
<g id="node10" class="node">
<title>GitHub</title>
<polygon fill="lightcyan" stroke="black" points="422,-471 264,-471 264,-435 422,-435 422,-471"/>
<text text-anchor="middle" x="343" y="-449.9" font-family="Times,serif" font-size="12.00">GitHub Actions (CI/CD)</text>
</g>
<!-- GitHub&#45;&gt;S3 -->
<g id="edge1" class="edge">
<title>GitHub&#45;&gt;S3</title>
<path fill="none" stroke="black" d="M291.46,-434.88C277.73,-429.71 263.08,-423.63 250,-417 239.11,-411.48 237.57,-408.1 227,-402 219.22,-397.51 210.81,-392.98 202.61,-388.73"/>
<polygon fill="black" stroke="black" points="203.99,-385.51 193.5,-384.08 200.81,-391.74 203.99,-385.51"/>
<text text-anchor="middle" x="318" y="-405.8" font-family="Times,serif" font-size="14.00">Deploys Static App</text>
</g>
<!-- GitHub&#45;&gt;Lambdas -->
<g id="edge2" class="edge">
<title>GitHub&#45;&gt;Lambdas</title>
<path fill="none" stroke="black" d="M369.15,-434.99C375.41,-429.85 381.57,-423.76 386,-417 398.65,-397.7 400,-390.08 400,-367 400,-367 400,-367 400,-191 400,-167.92 401.71,-157.9 386,-141 379.49,-133.99 371.47,-128.38 362.85,-123.9"/>
<polygon fill="black" stroke="black" points="364.24,-120.68 353.7,-119.62 361.27,-127.02 364.24,-120.68"/>
<text text-anchor="middle" x="461.5" y="-275.3" font-family="Times,serif" font-size="14.00">Deploys Backend</text>
</g>
</g>
</svg>
